<svg xmlns="http://www.w3.org/2000/svg" viewBox="0 0 24 24" fill="white">
  <path d="M20 5.5V18.5C20 19.6 19.1 20.5 18 20.5H6C4.9 20.5 4 19.6 4 18.5V5.5C4 4.4 4.9 3.5 6 3.5H18C19.1 3.5 20 4.4 20 5.5ZM12 7C9.2 7 7 9.2 7 12C7 14.8 9.2 17 12 17C14.8 17 17 14.8 17 12C17 9.2 14.8 7 12 7ZM12 15C10.3 15 9 13.7 9 12C9 10.3 10.3 9 12 9C13.7 9 15 10.3 15 12C15 13.7 13.7 15 12 15ZM12 11C11.4 11 11 11.4 11 12C11 12.6 11.4 13 12 13C12.6 13 13 12.6 13 12C13 11.4 12.6 11 12 11Z"/>
  <rect x="6" y="3.5" width="2" height="2" rx="0.5"/>
  <rect x="10" y="3.5" width="2" height="2" rx="0.5"/>
  <rect x="14" y="3.5" width="2" height="2" rx="0.5"/>
  <rect x="6" y="18.5" width="2" height="2" rx="0.5"/>
  <rect x="10" y="18.5" width="2" height="2" rx="0.5"/>
  <rect x="14" y="18.5" width="2" height="2" rx="0.5"/>
</svg>
